<?xml version="1.0" encoding="utf-8"?>
<!-- Generator: Adobe Illustrator 23.0.1, SVG Export Plug-In . SVG Version: 6.00 Build 0)  -->
<svg version="1.1" id="Layer_1" xmlns="http://www.w3.org/2000/svg" xmlns:xlink="http://www.w3.org/1999/xlink" x="0px" y="0px"
	 viewBox="0 0 393 500" style="enable-background:new 0 0 393 500;" xml:space="preserve">
<style type="text/css">
	.st0{fill:none;stroke:#000024;stroke-width:2;stroke-miterlimit:10;}
	.st1{fill:none;}
</style>
<g>
	<path class="st0" d="M30,35.6h45.6l-4.2,46.9l-18.7,5.3l-18.6-5.3L30,35.6z M45.3,56.7l-0.5-5.9l21.9,0l0.5-5.7l-28.6,0L40,62.5
		h19.8L59.1,70l-6.3,1.7L46.4,70L46,65.4h-5.7l0.7,9.1l11.8,3.2l11.7-3.1l1.6-17.7L45.3,56.7L45.3,56.7z"/>
</g>
<g>
	<path class="st0" d="M167.1,88.9c-4.8-5-11.3-7.7-18.4-7.7c-14.3,0-26.1,11.8-26.1,26.1s11.8,26.1,26.1,26.1
		c14.3,0,26.1-11.8,26.1-26.1C174.8,100.3,172.1,93.7,167.1,88.9L167.1,88.9z M148.7,124.3c-7.9,0-14.3-6.3-14.3-14.3
		c0-6.6,4.5-11.1,8.4-15c2.7-2.7,5.2-5.2,5.9-8.2c0.7,2.7,3.2,5.2,5.9,7.9c3.9,3.9,8.4,8.4,8.4,15
		C163,117.7,156.7,124.1,148.7,124.3z"/>
</g>
<g>
	<path class="st0" d="M52.8,125.9c-14.4,0-26.1,11.7-26.1,26.1c0,14.4,11.7,26.1,26.1,26.1s26.1-11.7,26.1-26.1
		C78.9,137.6,67.2,125.9,52.8,125.9z M52.8,127.6c6.2,0,11.9,2.4,16.2,6.2H36.6C41,129.8,46.8,127.6,52.8,127.6z M37.2,135.4h31.2
		l-15.6,31.2L37.2,135.4z M34.5,135.8v32.5c-4-4.5-6.2-10.2-6.2-16.2C28.3,145.8,30.7,140.1,34.5,135.8L34.5,135.8z M71,135.8
		c4,4.5,6.2,10.2,6.2,16.2c0,6.2-2.4,11.9-6.2,16.2V135.8z M36.2,137L52,168.6H36.2V137z M69.4,137v31.6H53.6L69.4,137L69.4,137z
		 M36.6,170.3H69c-4.5,4-10.2,6.2-16.2,6.2C46.8,176.5,41,174.2,36.6,170.3L36.6,170.3z"/>
</g>
<g>
	<path class="st0" d="M33.1,262.1l5.1-33.1c0.1-0.6,0.7-1.1,1.3-1c0.4,0.1,0.7,0.3,0.9,0.6L46,239L33.1,262.1z M69.6,270.1
		l-4.9-30.4c-0.1-0.6-0.7-1.1-1.4-1c-0.2,0-0.5,0.2-0.6,0.3l-30.9,31.1l17.1,9.6c1.1,0.6,2.4,0.6,3.4,0
		C52.4,279.7,69.6,270.1,69.6,270.1z M55.7,243.5l-4-7.6c-0.3-0.6-1-0.8-1.6-0.5c-0.2,0.1-0.4,0.3-0.5,0.5l-17.4,31.1L55.7,243.5z"
		/>
</g>
<g>
	<path class="st0" d="M60.5,366.2l1.4-2.4c0,0-3.1,1.3-8.4,1.3c-5.3,0-8.3-1.2-8.3-1.2l1.5,2.6l0.5,8.1c0,0.9,2.9,1.6,6.4,1.6
		c3.5,0,6.4-0.7,6.4-1.6L60.5,366.2L60.5,366.2L60.5,366.2z M61.8,350.9c-1.7,0.1-2.5,2-3.3,3.9c-0.3,0.7-1.4,3.8-2.1,3.4
		c-0.7-0.4,0.9-2.9,1.3-4.4c-0.5,0.4-2.4,1.8-2.9,0.5c-0.8,0.7-2.5,1-2.3-0.7c-0.4,0.7-1.3,1.8-2.5,1.3c-1.5-0.6,0.9-5.2,1.4-5
		c0.6,0.3-0.1,1.3-0.3,1.7c-0.4,0.9-0.9,2.1-0.6,2.3c0.5,0.4,2-1.5,2-1.6c0.3-0.4,1-2.7,1.7-2.4c0.6,0.3-1.5,3.3-0.7,4
		c0.2,0.1,0.8-0.1,1.2-0.5c0.3-0.3,0.2-0.9,1-3c0.9-2.1,1.7-4.7,2.3-4.5c0.6,0.2,0.1,1.5-0.1,2c-1,2.3-2.8,6.2-1.9,5.9
		c0.8-0.3,1.2-0.3,2-1.2c0.8-0.9,0.7-2.5,1.3-2.5c0.5,0,0.5,0.6,0.3,0.9c0.5-0.6,2.5-1.9,3-0.6c0.6,1.5-2.8,3.7-2,3.5
		c0.8-0.1,2.1-0.9,2.7-1.7l1.6-14.1c0,0-1.6,1.3-11.6,1.3s-11.5-1.3-11.5-1.3l1.3,12.9c0.7-2,2.4-6.1,5-6c1.2,0.1,2.8,2.4,1.4,2.5
		c-0.6,0-0.7-1.2-1.3-1.3c-0.5-0.1-1.2,0.3-1.7,0.7c-0.9,0.9-2.8,4.4-2.6,6.1c0.3,2.2,3.1-0.8,3.5-1.6c0.3-0.6,0.6-2.5,1.2-2.3
		c0.7,0.2-0.1,2.1-0.6,3.8c-0.6,1.9-0.9,3.9-1.6,3.6c-0.7-0.2,0.5-2.7,0.4-3.1c-0.7,0.6-1.9,2.2-3.5,1.4l0.8,8c0,0,2.2,1.7,8.9,1.7
		s8.9-1.7,8.9-1.7l1-9.3c-0.8,0.8-3.5,2.3-3.7,0.7c-0.1-1.3,2.9-3.3,2.1-3.3C61.7,351,61.8,350.9,61.8,350.9z M65.2,325.4l-5.8,6.1
		l-1.1,4.1c4.1,0.3,6.9,0.8,6.9,1.5c0,0.9-5.2,1.6-11.7,1.6s-11.7-0.7-11.7-1.7c0-0.9,5.2-1.7,11.7-1.7c0.9,0,1.8,0,2.7,0l1.2-4.9
		l6.1-6.5c0.1-0.2,0.6,0,1,0.3C65.2,324.7,65.4,325.1,65.2,325.4L65.2,325.4C65.3,325.4,65.2,325.4,65.2,325.4z M56.9,338
		c0,0-1.1,0-1.3-0.2c0-0.1-0.1-0.1-0.1-0.2c0-0.1,0.1-0.2,0.2-0.2l0.1,0.2c0,0-0.1,0-0.1,0c0,0.1,0.7,0.1,1.2,0.1
		c0.5,0,1.2,0,1.2-0.1c0,0,0,0-0.1-0.1l0.1-0.2c0.1,0,0.3,0.1,0.3,0.3c0,0.2-0.3,0.3-0.5,0.3C57.6,338,56.9,338,56.9,338
		C56.9,338,56.9,338,56.9,338z"/>
</g>
<g>
	<path class="st0" d="M174.8,189.5l0-0.2l0-0.1c0-0.1,0-0.1-0.1-0.2c0,0,0-0.1,0-0.1l-0.1-0.1l-0.1-0.1l-0.1-0.1l-0.1-0.1l-0.1-0.1
		l-0.1-0.1l-0.1-0.1l-0.1-0.1l0,0L150,172.2c-0.8-0.5-1.7-0.5-2.5,0l-23.9,15.9l0,0l-0.1,0.1l-0.1,0.1l-0.1,0.1l-0.1,0.1l-0.1,0.1
		l-0.1,0.1c0,0-0.1,0.1-0.1,0.1l-0.1,0.1l0,0.1c0,0,0,0.1-0.1,0.2l0,0.1c0,0.1,0,0.1,0,0.2v16.3c0,0.1,0,0.2,0,0.3l0,0.1
		c0,0.1,0,0.1,0,0.2l0,0.1c0,0.1,0,0.1,0.1,0.2l0,0.1c0,0,0,0.1,0.1,0.1l0.1,0.1c0,0,0.1,0.1,0.1,0.1l0.1,0.1l0.1,0.1
		c0,0,0,0.1,0.1,0.1l0.1,0.1l0.1,0.1l0,0l23.8,15.9c0.4,0.3,0.8,0.4,1.2,0.4s0.8-0.1,1.2-0.4l23.9-15.8l0,0l0.1-0.1l0.1-0.1l0.1-0.1
		l0.1-0.1l0.1-0.1l0.1-0.1l0.1-0.1l0.1-0.2l0-0.1l0.1-0.2l0-0.1l0.1-0.2v-16.3c0-0.1,0-0.2,0-0.3l0-0.1L174.8,189.5L174.8,189.5z
		 M148.8,203.2l-7.9-5.3l7.9-5.3l7.9,5.3L148.8,203.2L148.8,203.2z M146.5,188.7l-9.7,6.5l-7.8-5.2l17.6-11.7V188.7L146.5,188.7z
		 M132.8,197.9l-5.6,3.8v-7.5L132.8,197.9L132.8,197.9z M136.8,200.6l9.7,6.5v10.5L129,205.9L136.8,200.6L136.8,200.6L136.8,200.6z
		 M151,207.1l9.7-6.5l7.8,5.3L151,217.6V207.1L151,207.1z M164.8,197.9l5.6-3.7v7.5L164.8,197.9L164.8,197.9z M160.7,195.2l-9.7-6.5
		v-10.5l17.6,11.7L160.7,195.2L160.7,195.2L160.7,195.2z"/>
</g>
<g>
	<path class="st0" d="M149.6,324.5c1,0,2-0.1,3-0.2c2.3-0.3,4.5-0.9,6.6-1.8c3-1.3,5.7-3.1,8-5.4c2.1-2.1,3.9-4.5,5.2-7.2
		c1.1-2.3,1.8-4.8,2.2-7.3c0.3-2.4,0.3-5-0.1-7.4c-0.3-2-0.9-4-1.7-5.9c-0.5-1.2-1.1-2.3-1.8-3.4c-2.5-3.9-6-7-10.2-9.1
		c-1.5-0.7-3-1.4-4.6-1.8h0c0.3,0.1,0.5,0.3,0.7,0.4c0.3,0.2,0.5,0.3,0.7,0.5c1.2,0.8,2.3,1.7,3.3,2.8c2.2,2.4,3.8,5.4,4.7,8.5
		c0.6,2.1,0.9,4.2,1,6.4c0.1,1.6,0.1,3.1-0.1,4.7c-0.3,2.7-1.2,5.3-2.6,7.6c-1,1.7-2.4,3.2-4,4.4c-2.6,2-6.1,3.1-9.4,2.4
		c-0.5-0.1-1.1-0.3-1.6-0.5c-0.6-0.3-1.1-0.6-1.6-0.9c-1-0.7-1.9-1.4-2.6-2.3c-0.9-1.1-1.7-2.3-2.2-3.7c-0.7-1.7-1-3.5-1-5.4
		c-0.1-2.7,0.5-5.4,1.8-7.7c0.9-1.6,2.1-2.9,3.5-4c0.5-0.4,1-0.7,1.5-1l0,0c-1-0.2-2-0.3-3-0.3c-0.9,0.1-1.7,0.2-2.6,0.5
		c-0.8,0.3-1.5,0.6-2.2,1c-0.5,0.3-1.1,0.7-1.5,1c-0.4,0.4-0.9,0.8-1.3,1.2c-2.4,2.4-3.7,5.7-4.3,9c-0.3,2.1-0.3,4.1-0.2,6.2
		c0.2,2.9,0.8,5.9,2,8.6c0.7,1.7,1.7,3.2,2.8,4.6c1.8,2.1,4.1,3.7,6.6,4.7c1.4,0.6,2.9,1,4.5,1.1
		C149.4,324.6,149.5,324.6,149.6,324.5C149.7,324.6,149.6,324.5,149.6,324.5z M143.4,323.7c-0.3-0.1-0.7-0.3-1-0.5
		c-0.3-0.2-0.6-0.4-0.9-0.5c-1.2-0.8-2.3-1.7-3.4-2.7c-2.3-2.4-3.9-5.4-4.7-8.6c-0.6-2.2-0.9-4.4-1-6.7c-0.1-1.5-0.1-2.9,0.1-4.4
		c0.3-2.7,1-5.3,2.4-7.6c0.9-1.7,2.2-3.2,3.8-4.3c1-0.8,2.2-1.5,3.4-1.9c1.7-0.6,3.6-0.8,5.4-0.6c0.7,0.1,1.4,0.3,2,0.5
		c0.1,0,0.1,0,0.1,0.1c0,0,0.1,0,0.1,0.1c0.1,0,0.2,0.1,0.3,0.2c0.5,0.3,1,0.6,1.5,0.9c1.9,1.3,3.4,3.2,4.4,5.3
		c0.9,1.9,1.3,4.1,1.3,6.2c0,2.3-0.4,4.6-1.4,6.6c-1.2,2.5-3.2,4.6-5.6,6c0.2,0.1,0.4,0.1,0.6,0.2c0.5,0.1,0.9,0.2,1.5,0.2
		c3.1,0.1,6.1-1.4,8.3-3.5c0.4-0.4,0.8-0.8,1.1-1.2c0.5-0.6,0.9-1.1,1.3-1.7c0.5-0.8,0.9-1.6,1.3-2.4c0.5-1.1,0.9-2.3,1.1-3.5
		c0.4-2.1,0.4-4.3,0.3-6.4c-0.3-4.3-1.4-8.5-3.9-12.1c-0.4-0.5-0.8-1-1.2-1.5c-0.7-0.8-1.5-1.5-2.2-2.2c-0.9-0.7-1.9-1.4-2.9-1.9
		c-1-0.5-2.3-0.9-3.6-1.3l-0.6-0.1c-0.4-0.1-0.9-0.1-1.3-0.1c-0.7,0-1.4,0-2.1,0c-1.5,0.1-3,0.3-4.5,0.7
		c-7.1,1.8-13.3,6.8-16.6,13.3c-1.1,2.1-1.8,4.3-2.2,6.6c-0.5,2.6-0.6,5.3-0.2,8c0.3,2.2,0.8,4.3,1.6,6.3c0.5,1.2,1.1,2.4,1.7,3.5
		c2.3,3.8,5.7,6.8,9.5,9c1.5,0.8,3,1.5,4.6,2C142.4,323.4,142.9,323.6,143.4,323.7L143.4,323.7z"/>
</g>
<g>
	<path class="st0" d="M148.7,369.9c-14.4,0-26.1,11.7-26.1,26.1c0,11.5,7.5,21.3,17.8,24.7c1.3,0.2,1.8-0.6,1.8-1.3
		c0-0.6,0-2.3,0-4.4c-7.3,1.6-8.8-3.5-8.8-3.5c-1.2-3-2.9-3.8-2.9-3.8c-2.4-1.6,0.2-1.6,0.2-1.6c2.6,0.2,4,2.7,4,2.7
		c2.3,4,6.1,2.8,7.6,2.2c0.2-1.7,0.9-2.8,1.7-3.5c-5.8-0.7-11.9-2.9-11.9-12.9c0-2.8,1-5.2,2.7-7c-0.3-0.7-1.2-3.3,0.2-6.9
		c0,0,2.2-0.7,7.2,2.7c2.1-0.6,4.3-0.9,6.5-0.9c2.2,0,4.4,0.3,6.5,0.9c5-3.4,7.1-2.7,7.1-2.7c1.4,3.6,0.5,6.2,0.3,6.9
		c1.7,1.8,2.7,4.1,2.7,7c0,10-6.1,12.2-11.9,12.9c0.9,0.8,1.8,2.4,1.8,4.8c0,3.5,0,6.3,0,7.1c0,0.7,0.5,1.5,1.8,1.2
		c10.4-3.4,17.9-13.2,17.9-24.7C174.8,381.5,163.1,369.9,148.7,369.9"/>
</g>
<g>
	<path class="st0" d="M225.1,138.4c-4,5.7-3.5,13.2-0.4,19.3c0.1,0.1,0.1,0.3,0.2,0.4c0,0.1,0.1,0.2,0.1,0.3c0,0.1,0.1,0.1,0.1,0.2
		c0,0.1,0.1,0.2,0.2,0.3l0.3,0.5c0.1,0.1,0.1,0.2,0.2,0.3c0.1,0.2,0.2,0.4,0.3,0.5c0,0.1,0.1,0.1,0.1,0.2c0.2,0.3,0.4,0.6,0.6,0.8
		c0.1,0.2,0.3,0.4,0.5,0.6c0.1,0.1,0.1,0.1,0.2,0.2l0.4,0.5c0.1,0.1,0.1,0.1,0.2,0.2c0.2,0.2,0.4,0.4,0.6,0.7c0,0,0,0,0,0
		c0.2,0.3,0.5,0.6,0.8,0.8c0.2,0.2,0.3,0.3,0.5,0.5l0.2,0.2c0.2,0.2,0.4,0.4,0.6,0.6c0,0,0,0,0,0l0.1,0.1c0.2,0.2,0.4,0.3,0.6,0.5
		l0.2,0.2c0.2,0.1,0.3,0.3,0.5,0.4l0.3,0.2c0.2,0.1,0.4,0.3,0.5,0.4c0.1,0,0.1,0.1,0.2,0.1l0.1,0l0.5,0.3l0.2,0.2
		c0.3,0.2,0.6,0.3,0.8,0.5c0.1,0,0.2,0.1,0.2,0.1c0.2,0.1,0.4,0.2,0.6,0.3c0.1,0.1,0.2,0.1,0.3,0.2c0.1,0.1,0.3,0.2,0.4,0.2
		c0,0,0.1,0,0.1,0c0.1,0,0.1,0.1,0.2,0.1c0.2,0.1,0.5,0.2,0.7,0.3c0,0,0.1,0,0.1,0.1c0.3,0.1,0.5,0.2,0.8,0.3c0.1,0,0.1,0.1,0.2,0.1
		c0.3,0.1,0.5,0.2,0.8,0.3l0.1,0c0.3,0.1,0.6,0.2,0.9,0.3c0.1,0,0.1,0,0.2,0.1c0.3,0.1,0.6,0.2,0.9,0.3
		c19.3,3.5,24.9-11.6,24.9-11.6c-4.7,6.1-13.1,7.8-21,6c-0.3-0.1-0.6-0.2-0.9-0.2c-0.4-0.1-0.7-0.2-1.1-0.3l-0.1,0
		c-0.3-0.1-0.5-0.2-0.8-0.3c-0.1,0-0.1-0.1-0.2-0.1c-0.3-0.1-0.5-0.2-0.8-0.3c-0.1,0-0.1,0-0.2-0.1c-0.2-0.1-0.5-0.2-0.7-0.3
		c-0.1,0-0.1-0.1-0.2-0.1c-0.2-0.1-0.4-0.2-0.5-0.3c-0.1-0.1-0.2-0.1-0.4-0.2c-0.2-0.1-0.4-0.2-0.6-0.4c-0.1,0-0.1-0.1-0.2-0.1
		c-0.3-0.2-0.6-0.3-0.8-0.5c-0.1,0-0.1-0.1-0.2-0.1c-0.2-0.1-0.4-0.3-0.6-0.4c-0.1,0-0.1-0.1-0.2-0.1c-0.2-0.1-0.4-0.3-0.6-0.4
		c-0.1-0.1-0.2-0.1-0.2-0.2c-0.2-0.1-0.3-0.3-0.5-0.4l-0.2-0.2c-0.2-0.2-0.4-0.3-0.6-0.5c0,0,0,0-0.1-0.1l-0.7-0.6l-0.2-0.2
		c-0.2-0.2-0.3-0.3-0.5-0.5l-0.2-0.2c-0.2-0.2-0.4-0.4-0.6-0.6l0,0c-0.2-0.2-0.4-0.4-0.6-0.7c-0.1-0.1-0.1-0.1-0.2-0.2l-0.4-0.5
		c-0.2-0.3-0.4-0.6-0.6-0.8c-4.4-6-6-14.3-2.5-21.1 M237.5,133.6c-2.9,4.2-2.7,9.7-0.5,14.1c0.4,0.7,0.8,1.5,1.3,2.1
		c0.4,0.6,0.9,1.4,1.5,1.9c0.2,0.2,0.4,0.5,0.6,0.7l0.2,0.2c0.2,0.2,0.4,0.4,0.7,0.6l0,0c0.3,0.2,0.5,0.4,0.8,0.6
		c0.1,0,0.1,0.1,0.2,0.1c0.3,0.2,0.5,0.4,0.8,0.6l0,0c0.1,0.1,0.2,0.2,0.4,0.2c0.1,0,0.1,0.1,0.2,0.1c0.2,0.1,0.4,0.2,0.6,0.4
		c0,0,0.1,0,0.1,0c0.2,0.1,0.4,0.2,0.5,0.3c0.1,0,0.1,0.1,0.2,0.1c0.1,0.1,0.3,0.1,0.4,0.2l0.1,0c0.3,0.1,0.5,0.2,0.8,0.4
		c0.1,0,0.1,0,0.2,0.1c0.2,0.1,0.4,0.2,0.6,0.3c0.1,0,0.2,0.1,0.3,0.1c0.2,0.1,0.4,0.1,0.6,0.2l0.3,0.1c0.3,0.1,0.6,0.2,0.8,0.2
		c14.9,2.5,18.4-9,18.4-9c-3.1,4.5-9.1,6.6-15.5,4.9c-0.3-0.1-0.6-0.2-0.8-0.2c-0.1,0-0.2-0.1-0.3-0.1c-0.2-0.1-0.4-0.1-0.6-0.2
		l-0.3-0.1c-0.2-0.1-0.4-0.2-0.6-0.3c-0.1,0-0.1,0-0.2-0.1c-0.3-0.1-0.5-0.2-0.8-0.4l-0.4-0.2l-0.2-0.1c-0.2-0.1-0.3-0.2-0.5-0.3
		c0,0-0.1,0-0.1-0.1c-0.2-0.1-0.4-0.2-0.6-0.4c-0.1,0-0.1-0.1-0.2-0.1l-0.4-0.3c-0.3-0.2-0.5-0.4-0.8-0.6c-0.1-0.1-0.1-0.1-0.2-0.1
		c-2.8-2.2-5-5.2-6.1-8.7c-1.1-3.6-0.9-7.6,1.1-10.8 M247.9,130c-1.7,2.5-1.9,5.6-0.7,8.4c1.3,2.9,3.8,5.2,6.8,6.3
		c0.1,0,0.2,0.1,0.4,0.1l0.2,0.1c0.2,0.1,0.3,0.1,0.5,0.2c8.2,1.6,10.5-4.2,11.1-5.1c-2,2.8-5.3,3.5-9.3,2.5c-0.3-0.1-0.7-0.2-1-0.3
		c-0.4-0.1-0.8-0.3-1.2-0.5c-0.7-0.3-1.4-0.8-2-1.2c-3.6-2.7-5.9-8-3.5-12.2"/>
</g>
<g>
	<path class="st0" d="M251.6,327.5l10.5,6.1c1.7-1.8,4.6-1.9,6.4-0.2c0.3,0.3,0.6,0.6,0.8,1c1.3,2.2,0.5,5-1.7,6.2
		c-0.4,0.2-0.8,0.4-1.2,0.5v12.1c2.4,0.6,3.9,3,3.4,5.5c-0.1,0.4-0.3,0.9-0.5,1.2c-1.3,2.2-4,2.9-6.2,1.7c-0.4-0.2-0.8-0.6-1.1-0.9
		l-10.4,6c0.8,2.4-0.5,5-2.9,5.8c-0.5,0.2-0.9,0.2-1.4,0.2c-2.5,0-4.5-2-4.6-4.5c0-0.4,0.1-0.9,0.2-1.3l-10.5-6.1
		c-1.7,1.8-4.6,1.9-6.4,0.1c-1.8-1.7-1.9-4.6-0.1-6.4c0.6-0.6,1.4-1.1,2.2-1.3l0-12.1c-2.4-0.6-4-3-3.4-5.5c0.1-0.4,0.3-0.8,0.5-1.2
		c1.3-2.2,4-2.9,6.2-1.7c0.4,0.2,0.7,0.5,1,0.8l10.5-6.1c-0.7-2.4,0.7-4.9,3.1-5.7c0.4-0.1,0.9-0.2,1.3-0.2c2.5,0,4.5,2,4.6,4.5
		C251.8,326.7,251.8,327.1,251.6,327.5z M250.5,329.4c0,0-0.1,0.1-0.1,0.1l13.7,23.8c0.1,0,0.1,0,0.2,0v-12.1
		c-2.4-0.6-3.9-3.1-3.3-5.5c0-0.1,0-0.1,0-0.2C261.1,335.5,250.5,329.4,250.5,329.4z M244.1,329.5l-0.1-0.1l-10.5,6.1
		c0.7,2.4-0.7,4.9-3.1,5.6c-0.1,0-0.1,0-0.2,0v12.1l0.2,0L244.1,329.5C244.1,329.5,244.1,329.5,244.1,329.5z M248.6,330.6
		c-0.8,0.2-1.7,0.2-2.5,0l-13.7,23.8c0.6,0.6,1.1,1.4,1.3,2.2H261c0.2-0.8,0.7-1.6,1.3-2.2C262.3,354.4,248.6,330.6,248.6,330.6z
		 M250.6,365.1l10.4-6c0-0.1-0.1-0.2-0.1-0.3h-27.5l0,0.2L244,365c0.8-0.9,2-1.4,3.3-1.4C248.6,363.6,249.8,364.2,250.6,365.1z"/>
</g>
<g>
	<path class="st0" d="M342.8,81.4c13.6,0,24.6,11,24.6,24.6s-11,24.6-24.6,24.6c-13.6,0-24.6-11-24.6-24.6S329.2,81.4,342.8,81.4z
		 M337.9,114.2c0.4,1.3,0.3,2.6,0,3.7l-0.1,0.4c0,0.1-0.1,0.2-0.2,0.4c-0.3,0.6-0.7,1.1-1.1,1.7c-1.4,1.6-3.4,2.1-4.3,1.7
		c-0.9-0.5-0.5-2.7,1.2-4.5c1.8-1.9,4.3-3.1,4.3-3.1v0L337.9,114.2z M358.2,92c-1.1-4.4-8.4-5.8-15.2-3.4c-4.1,1.4-8.5,3.7-11.7,6.7
		c-3.8,3.5-4.4,6.6-4.1,7.9c0.9,4.5,7.1,7.5,9.6,9.7v0c-0.8,0.4-6.3,3.1-7.6,6c-1.4,3,0.2,5.2,1.3,5.4c3.2,0.9,6.5-0.7,8.3-3.4
		c1.7-2.6,1.6-5.9,0.8-7.5c1-0.3,2.2-0.4,3.8-0.2c4.3,0.5,5.2,3.2,5,4.3c-0.2,1.1-1.1,1.8-1.4,1.9c-0.3,0.2-0.4,0.2-0.4,0.4
		c0,0.2,0.2,0.2,0.4,0.2c0.3-0.1,2.2-0.9,2.3-3c0.1-2.6-2.4-5.6-6.9-5.5c-1.8,0-3,0.2-3.8,0.5c-0.1-0.1-0.1-0.2-0.2-0.2
		c-2.8-3-7.9-5.1-7.7-9c0.1-1.4,0.6-5.3,9.8-9.9c7.6-3.8,13.7-2.7,14.7-0.4c1.5,3.3-3.2,9.4-11.1,10.3c-3,0.3-4.6-0.8-5-1.3
		c-0.4-0.5-0.5-0.5-0.6-0.4c-0.2,0.1-0.1,0.5,0,0.8c0.2,0.6,1.2,1.7,2.9,2.2c1.4,0.5,5,0.7,9.2-0.9c4.8-1.8,8.5-7,7.4-11.3
		C358.1,91.8,358.2,92,358.2,92z"/>
</g>
<g>
	<path class="st0" d="M338.3,199.3h9l-4.5-10.7 M342.8,171.8l-24.6,8.7l3.8,32.1l20.8,11.4l20.9-11.4l3.7-32.1L342.8,171.8
		L342.8,171.8z M358.2,211.6h-5.7l-3.1-7.6h-13.1l-3.1,7.6h-5.7l15.4-34L358.2,211.6z"/>
</g>
<g>
	<path class="st0" d="M342.8,291.8c-2.4,0-4.4,2-4.4,4.4c0,2.4,2,4.4,4.4,4.4c2.4,0,4.4-2,4.4-4.4
		C347.2,293.7,345.2,291.8,342.8,291.8z M330.5,304.9l-1-0.2c-7.2-1.8-11.3-4.9-11.3-8.5c0-3.6,4.1-6.7,11.3-8.5l1-0.2l0.3,1
		c0.7,2.5,1.7,5,2.8,7.3l0.2,0.4l-0.2,0.4c-1.1,2.4-2.1,4.8-2.8,7.3C330.8,303.9,330.5,304.9,330.5,304.9z M329.1,289.9
		c-5.5,1.5-8.8,3.9-8.8,6.2c0,2.3,3.4,4.7,8.8,6.2c0.7-2.1,1.5-4.2,2.4-6.2C330.6,294.1,329.8,292,329.1,289.9z M355.1,304.9l-0.3-1
		c-0.7-2.5-1.7-5-2.8-7.3l-0.2-0.4l0.2-0.4c1.1-2.4,2.1-4.8,2.8-7.3l0.3-1l1,0.2c7.2,1.8,11.3,4.9,11.3,8.5c0,3.6-4.1,6.7-11.3,8.5
		L355.1,304.9z M354.1,296.1c1,2.1,1.8,4.2,2.4,6.2c5.5-1.5,8.8-3.9,8.8-6.2c0-2.3-3.4-4.7-8.8-6.2C355.8,292,355,294.1,354.1,296.1
		z M329.1,289.9l-0.3-1c-2-7.1-1.4-12.3,1.7-14.1c3-1.8,7.9,0.3,13,5.6l0.7,0.7l-0.7,0.7c-1.8,1.9-3.5,3.9-5,6.1l-0.3,0.4l-0.5,0
		c-2.6,0.2-5.2,0.6-7.8,1.3C330.1,289.7,329.1,289.9,329.1,289.9z M333,276.3c-0.5,0-1,0.1-1.4,0.4c-2,1.2-2.4,5.3-1,10.8
		c2.2-0.5,4.4-0.8,6.6-1c1.3-1.8,2.7-3.6,4.2-5.2C338.2,278.1,335.1,276.3,333,276.3z M352.6,318C352.6,318,352.6,318,352.6,318
		c-2.9,0-6.7-2.2-10.6-6.2l-0.7-0.7l0.7-0.7c1.8-1.9,3.5-3.9,5-6.1l0.3-0.4l0.5,0c2.6-0.2,5.2-0.6,7.8-1.2l1-0.2l0.3,1
		c2,7.1,1.4,12.3-1.7,14C354.4,317.8,353.5,318.1,352.6,318z M344.2,311.1c3.2,3.1,6.2,4.9,8.4,4.9h0c0.5,0,1-0.1,1.4-0.4
		c2-1.2,2.4-5.3,1-10.8c-2.2,0.5-4.4,0.8-6.6,1C347.2,307.7,345.8,309.5,344.2,311.1z M356.5,289.9l-1-0.2c-2.5-0.6-5.1-1-7.8-1.3
		l-0.5,0L347,288c-1.5-2.2-3.1-4.2-5-6.1l-0.7-0.7l0.7-0.7c5.1-5.2,10-7.3,13-5.6c3.1,1.8,3.7,6.9,1.7,14.1
		C356.8,288.9,356.5,289.9,356.5,289.9z M348.4,286.4c2.3,0.2,4.6,0.6,6.6,1c1.4-5.5,1-9.6-1-10.8c-2-1.2-5.8,0.6-9.8,4.5
		C345.8,282.8,347.2,284.6,348.4,286.4z M333,318c-0.9,0-1.7-0.2-2.5-0.6c-3.1-1.8-3.7-6.9-1.7-14l0.3-1l1,0.2c2.4,0.6,5,1,7.8,1.2
		l0.5,0l0.3,0.4c1.5,2.2,3.1,4.2,5,6.1l0.7,0.7l-0.7,0.7C339.6,315.8,335.9,318,333,318z M330.5,304.9c-1.4,5.5-1,9.6,1,10.8
		c2,1.2,5.8-0.6,9.8-4.5c-1.5-1.6-2.9-3.4-4.2-5.2C334.9,305.7,332.7,305.4,330.5,304.9z M342.8,306.2c-1.7,0-3.4-0.1-5.2-0.2
		l-0.5,0l-0.3-0.4c-1-1.4-1.9-2.9-2.8-4.3c-0.9-1.5-1.7-3-2.4-4.6l-0.2-0.4l0.2-0.4c0.7-1.6,1.5-3.1,2.4-4.6
		c0.8-1.5,1.8-2.9,2.8-4.3l0.3-0.4l0.5,0c3.4-0.3,6.9-0.3,10.3,0l0.5,0l0.3,0.4c2,2.8,3.7,5.8,5.2,8.9l0.2,0.4l-0.2,0.4
		c-1.5,3.1-3.2,6.1-5.2,8.9l-0.3,0.4l-0.5,0C346.2,306.1,344.5,306.2,342.8,306.2z M338.3,303.9c3,0.2,6,0.2,9,0
		c1.7-2.5,3.2-5.1,4.5-7.8c-1.3-2.7-2.8-5.3-4.5-7.8c-3-0.2-6-0.2-9,0c-1.7,2.5-3.2,5.1-4.5,7.8
		C335.1,298.9,336.6,301.5,338.3,303.9z"/>
</g>
<g>
	<path class="st0" d="M328.1,399.7c0,2.7-2.2,4.9-4.9,5c-2.7,0-4.9-2.2-5-5c0-2.7,2.2-4.9,5-4.9h4.9
		C328.1,394.7,328.1,399.7,328.1,399.7z M330.6,399.7c0-2.7,2.2-4.9,5-4.9c2.7,0,4.9,2.2,5,4.9v12.4c0,2.7-2.2,4.9-5,5
		c-2.7,0-4.9-2.2-5-5C330.6,412.1,330.6,399.7,330.6,399.7z M335.6,379.8c-2.7,0-4.9-2.2-5-4.9c0-2.7,2.2-4.9,5-5c2.7,0,4.9,2.2,5,5
		v4.9H335.6z M335.6,382.3c2.7,0,4.9,2.2,5,5c0,2.7-2.2,4.9-5,5h-12.4c-2.7,0-4.9-2.2-5-5c0-2.7,2.2-4.9,5-5
		C323.2,382.3,335.6,382.3,335.6,382.3z M355.4,387.2c0-2.7,2.2-4.9,5-5c2.7,0,4.9,2.2,5,5c0,2.7-2.2,4.9-5,5h-5
		C355.4,392.2,355.4,387.2,355.4,387.2z M353,387.2c0,2.7-2.2,4.9-5,5c-2.7,0-4.9-2.2-4.9-5v-12.4c0-2.7,2.2-4.9,4.9-5
		c2.7,0,4.9,2.2,5,5V387.2z M348,407.1c2.7,0,4.9,2.2,5,5c0,2.7-2.2,4.9-5,5c-2.7,0-4.9-2.2-4.9-5v-5C343,407.1,348,407.1,348,407.1
		z M348,404.6c-2.7,0-4.9-2.2-4.9-5c0-2.7,2.2-4.9,4.9-4.9h12.4c2.7,0,4.9,2.2,5,4.9c0,2.7-2.2,4.9-5,5
		C360.4,404.6,348,404.6,348,404.6z"/>
</g>
<g>
	<path class="st0" d="M222.2,236.7v17.5h14.5v2.9h11.6v-2.9h26.2v-17.5C274.6,236.7,222.2,236.7,222.2,236.7z M236.8,251.2h-2.9
		v-8.7h-2.9v8.7h-5.8v-11.6h11.6C236.8,239.6,236.8,251.2,236.8,251.2z M245.5,251.2v2.9h-5.8v-14.5h11.6v11.6L245.5,251.2
		C245.5,251.2,245.5,251.2,245.5,251.2z M271.7,251.2h-2.9v-8.7h-2.9v8.7H263v-8.7H260v8.7h-5.8v-11.6h17.5
		C271.7,239.6,271.7,251.2,271.7,251.2z M245.5,242.5h2.9v5.8h-2.9V242.5z"/>
</g>
<g>
	<path class="st0" d="M273.6,56.9L250.7,34c-1.3-1.3-3.5-1.3-4.8,0l-4.7,4.7l6,6c1.4-0.5,3-0.2,4.1,1c1.1,1.1,1.4,2.7,1,4.1l5.8,5.8
		c1.4-0.5,3-0.2,4.1,0.9c1.6,1.6,1.6,4.1,0,5.7c-1.6,1.6-4.1,1.6-5.7,0c-1.2-1.2-1.5-2.9-0.9-4.4l-5.4-5.4v14.2
		c0.4,0.2,0.7,0.4,1.1,0.8c1.6,1.6,1.6,4.1,0,5.7c-1.6,1.6-4.1,1.6-5.7,0c-1.6-1.6-1.6-4.1,0-5.7c0.4-0.4,0.8-0.7,1.3-0.9V52.3
		c-0.5-0.2-0.9-0.5-1.3-0.9c-1.2-1.2-1.5-2.9-0.9-4.4l-5.9-5.9l-15.7,15.7c-1.3,1.3-1.3,3.5,0,4.8l22.9,22.9c1.3,1.3,3.5,1.3,4.8,0
		l22.8-22.8C274.9,60.3,274.9,58.2,273.6,56.9"/>
</g>
<rect class="st1" width="393" height="500"/>
<g>
	<path class="st0" d="M273.6,439.3l-22.9-22.9c-1.3-1.3-3.5-1.3-4.8,0l-4.7,4.7l6,6c1.4-0.5,3-0.2,4.1,1c1.1,1.1,1.4,2.7,1,4.1
		l5.8,5.8c1.4-0.5,3-0.2,4.1,0.9c1.6,1.6,1.6,4.1,0,5.7c-1.6,1.6-4.1,1.6-5.7,0c-1.2-1.2-1.5-2.9-0.9-4.4l-5.4-5.4v14.2
		c0.4,0.2,0.7,0.4,1.1,0.8c1.6,1.6,1.6,4.1,0,5.7c-1.6,1.6-4.1,1.6-5.7,0c-1.6-1.6-1.6-4.1,0-5.7c0.4-0.4,0.8-0.7,1.3-0.9v-14.4
		c-0.5-0.2-0.9-0.5-1.3-0.9c-1.2-1.2-1.5-2.9-0.9-4.4l-5.9-5.9l-15.7,15.7c-1.3,1.3-1.3,3.5,0,4.8l22.9,22.9c1.3,1.3,3.5,1.3,4.8,0
		l22.8-22.8C274.9,442.7,274.9,440.6,273.6,439.3"/>
</g>
<g>
	<path class="st0" d="M136.1,6.7c0,2.7-2.2,4.9-4.9,5c-2.7,0-4.9-2.2-5-5c0-2.7,2.2-4.9,5-4.9h4.9C136.1,1.7,136.1,6.7,136.1,6.7z
		 M138.6,6.7c0-2.7,2.2-4.9,5-4.9c2.7,0,4.9,2.2,5,4.9v12.4c0,2.7-2.2,4.9-5,5c-2.7,0-4.9-2.2-5-5C138.6,19.1,138.6,6.7,138.6,6.7z
		 M143.6-13.2c-2.7,0-4.9-2.2-5-4.9c0-2.7,2.2-4.9,5-5c2.7,0,4.9,2.2,5,5v4.9H143.6z M143.6-10.7c2.7,0,4.9,2.2,5,5
		c0,2.7-2.2,4.9-5,5h-12.4c-2.7,0-4.9-2.2-5-5c0-2.7,2.2-4.9,5-5C131.2-10.7,143.6-10.7,143.6-10.7z M163.4-5.8c0-2.7,2.2-4.9,5-5
		c2.7,0,4.9,2.2,5,5c0,2.7-2.2,4.9-5,5h-5C163.4-0.8,163.4-5.8,163.4-5.8z M161-5.8c0,2.7-2.2,4.9-5,5c-2.7,0-4.9-2.2-4.9-5v-12.4
		c0-2.7,2.2-4.9,4.9-5c2.7,0,4.9,2.2,5,5V-5.8z M156,14.1c2.7,0,4.9,2.2,5,5c0,2.7-2.2,4.9-5,5c-2.7,0-4.9-2.2-4.9-5v-5
		C151,14.1,156,14.1,156,14.1z M156,11.6c-2.7,0-4.9-2.2-4.9-5c0-2.7,2.2-4.9,4.9-4.9h12.4c2.7,0,4.9,2.2,5,4.9c0,2.7-2.2,4.9-5,5
		C168.4,11.6,156,11.6,156,11.6z"/>
</g>
<g>
	<path class="st0" d="M136.1,504.7c0,2.7-2.2,4.9-4.9,5c-2.7,0-4.9-2.2-5-5c0-2.7,2.2-4.9,5-4.9h4.9
		C136.1,499.7,136.1,504.7,136.1,504.7z M138.6,504.7c0-2.7,2.2-4.9,5-4.9c2.7,0,4.9,2.2,5,4.9v12.4c0,2.7-2.2,4.9-5,5
		c-2.7,0-4.9-2.2-5-5C138.6,517.1,138.6,504.7,138.6,504.7z M143.6,484.8c-2.7,0-4.9-2.2-5-4.9c0-2.7,2.2-4.9,5-5c2.7,0,4.9,2.2,5,5
		v4.9H143.6z M143.6,487.3c2.7,0,4.9,2.2,5,5c0,2.7-2.2,4.9-5,5h-12.4c-2.7,0-4.9-2.2-5-5c0-2.7,2.2-4.9,5-5
		C131.2,487.3,143.6,487.3,143.6,487.3z M163.4,492.2c0-2.7,2.2-4.9,5-5c2.7,0,4.9,2.2,5,5c0,2.7-2.2,4.9-5,5h-5
		C163.4,497.2,163.4,492.2,163.4,492.2z M161,492.2c0,2.7-2.2,4.9-5,5c-2.7,0-4.9-2.2-4.9-5v-12.4c0-2.7,2.2-4.9,4.9-5
		c2.7,0,4.9,2.2,5,5V492.2z M156,512.1c2.7,0,4.9,2.2,5,5c0,2.7-2.2,4.9-5,5c-2.7,0-4.9-2.2-4.9-5v-5C151,512.1,156,512.1,156,512.1
		z M156,509.6c-2.7,0-4.9-2.2-4.9-5c0-2.7,2.2-4.9,4.9-4.9h12.4c2.7,0,4.9,2.2,5,4.9c0,2.7-2.2,4.9-5,5
		C168.4,509.6,156,509.6,156,509.6z"/>
</g>
<g>
	<path class="st0" d="M36.1,430.4c-4,5.7-3.5,13.2-0.4,19.3c0.1,0.1,0.1,0.3,0.2,0.4c0,0.1,0.1,0.2,0.1,0.3c0,0.1,0.1,0.1,0.1,0.2
		c0,0.1,0.1,0.2,0.2,0.3l0.3,0.5c0.1,0.1,0.1,0.2,0.2,0.3c0.1,0.2,0.2,0.4,0.3,0.5c0,0.1,0.1,0.1,0.1,0.2c0.2,0.3,0.4,0.6,0.6,0.8
		c0.1,0.2,0.3,0.4,0.5,0.6c0.1,0.1,0.1,0.1,0.2,0.2l0.4,0.5c0.1,0.1,0.1,0.1,0.2,0.2c0.2,0.2,0.4,0.4,0.6,0.7c0,0,0,0,0,0
		c0.2,0.3,0.5,0.6,0.8,0.8c0.2,0.2,0.3,0.3,0.5,0.5l0.2,0.2c0.2,0.2,0.4,0.4,0.6,0.6c0,0,0,0,0,0l0.1,0.1c0.2,0.2,0.4,0.3,0.6,0.5
		l0.2,0.2c0.2,0.1,0.3,0.3,0.5,0.4l0.3,0.2c0.2,0.1,0.4,0.3,0.5,0.4c0.1,0,0.1,0.1,0.2,0.1l0.1,0l0.5,0.3l0.2,0.2
		c0.3,0.2,0.6,0.3,0.8,0.5c0.1,0,0.2,0.1,0.2,0.1c0.2,0.1,0.4,0.2,0.6,0.3c0.1,0.1,0.2,0.1,0.3,0.2c0.1,0.1,0.3,0.2,0.4,0.2
		c0,0,0.1,0,0.1,0c0.1,0,0.1,0.1,0.2,0.1c0.2,0.1,0.5,0.2,0.7,0.3c0,0,0.1,0,0.1,0.1c0.3,0.1,0.5,0.2,0.8,0.3c0.1,0,0.1,0.1,0.2,0.1
		c0.3,0.1,0.5,0.2,0.8,0.3l0.1,0c0.3,0.1,0.6,0.2,0.9,0.3c0.1,0,0.1,0,0.2,0.1c0.3,0.1,0.6,0.2,0.9,0.3
		c19.3,3.5,24.9-11.6,24.9-11.6c-4.7,6.1-13.1,7.8-21,6c-0.3-0.1-0.6-0.2-0.9-0.2c-0.4-0.1-0.7-0.2-1.1-0.3l-0.1,0
		c-0.3-0.1-0.5-0.2-0.8-0.3c-0.1,0-0.1-0.1-0.2-0.1c-0.3-0.1-0.5-0.2-0.8-0.3c-0.1,0-0.1,0-0.2-0.1c-0.2-0.1-0.5-0.2-0.7-0.3
		c-0.1,0-0.1-0.1-0.2-0.1c-0.2-0.1-0.4-0.2-0.5-0.3c-0.1-0.1-0.2-0.1-0.4-0.2c-0.2-0.1-0.4-0.2-0.6-0.4c-0.1,0-0.1-0.1-0.2-0.1
		c-0.3-0.2-0.6-0.3-0.8-0.5c-0.1,0-0.1-0.1-0.2-0.1c-0.2-0.1-0.4-0.3-0.6-0.4c-0.1,0-0.1-0.1-0.2-0.1c-0.2-0.1-0.4-0.3-0.6-0.4
		c-0.1-0.1-0.2-0.1-0.2-0.2c-0.2-0.1-0.3-0.3-0.5-0.4l-0.2-0.2c-0.2-0.2-0.4-0.3-0.6-0.5c0,0,0,0-0.1-0.1l-0.7-0.6l-0.2-0.2
		c-0.2-0.2-0.3-0.3-0.5-0.5l-0.2-0.2c-0.2-0.2-0.4-0.4-0.6-0.6l0,0c-0.2-0.2-0.4-0.4-0.6-0.7c-0.1-0.1-0.1-0.1-0.2-0.2l-0.4-0.5
		c-0.2-0.3-0.4-0.6-0.6-0.8c-4.4-6-6-14.3-2.5-21.1 M48.5,425.6c-2.9,4.2-2.7,9.7-0.5,14.1c0.4,0.7,0.8,1.5,1.3,2.1
		c0.4,0.6,0.9,1.4,1.5,1.9c0.2,0.2,0.4,0.5,0.6,0.7l0.2,0.2c0.2,0.2,0.4,0.4,0.7,0.6l0,0c0.3,0.2,0.5,0.4,0.8,0.6
		c0.1,0,0.1,0.1,0.2,0.1c0.3,0.2,0.5,0.4,0.8,0.6l0,0c0.1,0.1,0.2,0.2,0.4,0.2c0.1,0,0.1,0.1,0.2,0.1c0.2,0.1,0.4,0.2,0.6,0.4
		c0,0,0.1,0,0.1,0c0.2,0.1,0.4,0.2,0.5,0.3c0.1,0,0.1,0.1,0.2,0.1c0.1,0.1,0.3,0.1,0.4,0.2l0.1,0c0.3,0.1,0.5,0.2,0.8,0.4
		c0.1,0,0.1,0,0.2,0.1c0.2,0.1,0.4,0.2,0.6,0.3c0.1,0,0.2,0.1,0.3,0.1c0.2,0.1,0.4,0.1,0.6,0.2l0.3,0.1c0.3,0.1,0.6,0.2,0.8,0.2
		c14.9,2.5,18.4-9,18.4-9c-3.1,4.5-9.1,6.6-15.5,4.9c-0.3-0.1-0.6-0.2-0.8-0.2c-0.1,0-0.2-0.1-0.3-0.1c-0.2-0.1-0.4-0.1-0.6-0.2
		l-0.3-0.1c-0.2-0.1-0.4-0.2-0.6-0.3c-0.1,0-0.1,0-0.2-0.1c-0.3-0.1-0.5-0.2-0.8-0.4l-0.4-0.2l-0.2-0.1c-0.2-0.1-0.3-0.2-0.5-0.3
		c0,0-0.1,0-0.1-0.1c-0.2-0.1-0.4-0.2-0.6-0.4c-0.1,0-0.1-0.1-0.2-0.1l-0.4-0.3c-0.3-0.2-0.5-0.4-0.8-0.6c-0.1-0.1-0.1-0.1-0.2-0.1
		c-2.8-2.2-5-5.2-6.1-8.7c-1.1-3.6-0.9-7.6,1.1-10.8 M58.9,422c-1.7,2.5-1.9,5.6-0.7,8.4c1.3,2.9,3.8,5.2,6.8,6.3
		c0.1,0,0.2,0.1,0.4,0.1l0.2,0.1c0.2,0.1,0.3,0.1,0.5,0.2c8.2,1.6,10.5-4.2,11.1-5.1c-2,2.8-5.3,3.5-9.3,2.5c-0.3-0.1-0.7-0.2-1-0.3
		c-0.4-0.1-0.8-0.3-1.2-0.5c-0.7-0.3-1.4-0.8-2-1.2c-3.6-2.7-5.9-8-3.5-12.2"/>
</g>
<g>
	<path class="st0" d="M339.6,523.5c1,0,2-0.1,3-0.2c2.3-0.3,4.5-0.9,6.6-1.8c3-1.3,5.7-3.1,8-5.4c2.1-2.1,3.9-4.5,5.2-7.2
		c1.1-2.3,1.8-4.8,2.2-7.3c0.3-2.4,0.3-5-0.1-7.4c-0.3-2-0.9-4-1.7-5.9c-0.5-1.2-1.1-2.3-1.8-3.4c-2.5-3.9-6-7-10.2-9.1
		c-1.5-0.7-3-1.4-4.6-1.8h0c0.3,0.1,0.5,0.3,0.7,0.4c0.3,0.2,0.5,0.3,0.7,0.5c1.2,0.8,2.3,1.7,3.3,2.8c2.2,2.4,3.8,5.4,4.7,8.5
		c0.6,2.1,0.9,4.2,1,6.4c0.1,1.6,0.1,3.1-0.1,4.7c-0.3,2.7-1.2,5.3-2.6,7.6c-1,1.7-2.4,3.2-4,4.4c-2.6,2-6.1,3.1-9.4,2.4
		c-0.5-0.1-1.1-0.3-1.6-0.5c-0.6-0.3-1.1-0.6-1.6-0.9c-1-0.7-1.9-1.4-2.6-2.3c-0.9-1.1-1.7-2.3-2.2-3.7c-0.7-1.7-1-3.5-1-5.4
		c-0.1-2.7,0.5-5.4,1.8-7.7c0.9-1.6,2.1-2.9,3.5-4c0.5-0.4,1-0.7,1.5-1l0,0c-1-0.2-2-0.3-3-0.3c-0.9,0.1-1.7,0.2-2.6,0.5
		c-0.8,0.3-1.5,0.6-2.2,1c-0.5,0.3-1.1,0.7-1.5,1c-0.4,0.4-0.9,0.8-1.3,1.2c-2.4,2.4-3.7,5.7-4.3,9c-0.3,2.1-0.3,4.1-0.2,6.2
		c0.2,2.9,0.8,5.9,2,8.6c0.7,1.7,1.7,3.2,2.8,4.6c1.8,2.1,4.1,3.7,6.6,4.7c1.4,0.6,2.9,1,4.5,1.1
		C339.4,523.6,339.5,523.6,339.6,523.5C339.7,523.6,339.6,523.5,339.6,523.5z M333.4,522.7c-0.3-0.1-0.7-0.3-1-0.5
		c-0.3-0.2-0.6-0.4-0.9-0.5c-1.2-0.8-2.3-1.7-3.4-2.7c-2.3-2.4-3.9-5.4-4.7-8.6c-0.6-2.2-0.9-4.4-1-6.7c-0.1-1.5-0.1-2.9,0.1-4.4
		c0.3-2.7,1-5.3,2.4-7.6c0.9-1.7,2.2-3.2,3.8-4.3c1-0.8,2.2-1.5,3.4-1.9c1.7-0.6,3.6-0.8,5.4-0.6c0.7,0.1,1.4,0.3,2,0.5
		c0.1,0,0.1,0,0.1,0.1c0,0,0.1,0,0.1,0.1c0.1,0,0.2,0.1,0.3,0.2c0.5,0.3,1,0.6,1.5,0.9c1.9,1.3,3.4,3.2,4.4,5.3
		c0.9,1.9,1.3,4.1,1.3,6.2c0,2.3-0.4,4.6-1.4,6.6c-1.2,2.5-3.2,4.6-5.6,6c0.2,0.1,0.4,0.1,0.6,0.2c0.5,0.1,0.9,0.2,1.5,0.2
		c3.1,0.1,6.1-1.4,8.3-3.5c0.4-0.4,0.8-0.8,1.1-1.2c0.5-0.6,0.9-1.1,1.3-1.7c0.5-0.8,0.9-1.6,1.3-2.4c0.5-1.1,0.9-2.3,1.1-3.5
		c0.4-2.1,0.4-4.3,0.3-6.4c-0.3-4.3-1.4-8.5-3.9-12.1c-0.4-0.5-0.8-1-1.2-1.5c-0.7-0.8-1.5-1.5-2.2-2.2c-0.9-0.7-1.9-1.4-2.9-1.9
		c-1-0.5-2.3-0.9-3.6-1.3l-0.6-0.1c-0.4-0.1-0.9-0.1-1.3-0.1c-0.7,0-1.4,0-2.1,0c-1.5,0.1-3,0.3-4.5,0.7
		c-7.1,1.8-13.3,6.8-16.6,13.3c-1.1,2.1-1.8,4.3-2.2,6.6c-0.5,2.6-0.6,5.3-0.2,8c0.3,2.2,0.8,4.3,1.6,6.3c0.5,1.2,1.1,2.4,1.7,3.5
		c2.3,3.8,5.7,6.8,9.5,9c1.5,0.8,3,1.5,4.6,2C332.4,522.4,332.9,522.6,333.4,522.7L333.4,522.7z"/>
</g>
<g>
	<path class="st0" d="M339.6,23.5c1,0,2-0.1,3-0.2c2.3-0.3,4.5-0.9,6.6-1.8c3-1.3,5.7-3.1,8-5.4c2.1-2.1,3.9-4.5,5.2-7.2
		c1.1-2.3,1.8-4.8,2.2-7.3c0.3-2.4,0.3-5-0.1-7.4c-0.3-2-0.9-4-1.7-5.9c-0.5-1.2-1.1-2.3-1.8-3.4c-2.5-3.9-6-7-10.2-9.1
		c-1.5-0.7-3-1.4-4.6-1.8h0c0.3,0.1,0.5,0.3,0.7,0.4c0.3,0.2,0.5,0.3,0.7,0.5c1.2,0.8,2.3,1.7,3.3,2.8c2.2,2.4,3.8,5.4,4.7,8.5
		c0.6,2.1,0.9,4.2,1,6.4c0.1,1.6,0.1,3.1-0.1,4.7c-0.3,2.7-1.2,5.3-2.6,7.6c-1,1.7-2.4,3.2-4,4.4c-2.6,2-6.1,3.1-9.4,2.4
		c-0.5-0.1-1.1-0.3-1.6-0.5c-0.6-0.3-1.1-0.6-1.6-0.9c-1-0.7-1.9-1.4-2.6-2.3c-0.9-1.1-1.7-2.3-2.2-3.7c-0.7-1.7-1-3.5-1-5.4
		C331.5-4,332-6.7,333.4-9c0.9-1.6,2.1-2.9,3.5-4c0.5-0.4,1-0.7,1.5-1l0,0c-1-0.2-2-0.3-3-0.3c-0.9,0.1-1.7,0.2-2.6,0.5
		c-0.8,0.3-1.5,0.6-2.2,1c-0.5,0.3-1.1,0.7-1.5,1c-0.4,0.4-0.9,0.8-1.3,1.2c-2.4,2.4-3.7,5.7-4.3,9c-0.3,2.1-0.3,4.1-0.2,6.2
		c0.2,2.9,0.8,5.9,2,8.6c0.7,1.7,1.7,3.2,2.8,4.6c1.8,2.1,4.1,3.7,6.6,4.7c1.4,0.6,2.9,1,4.5,1.1C339.4,23.6,339.5,23.6,339.6,23.5
		C339.7,23.6,339.6,23.5,339.6,23.5z M333.4,22.7c-0.3-0.1-0.7-0.3-1-0.5c-0.3-0.2-0.6-0.4-0.9-0.5c-1.2-0.8-2.3-1.7-3.4-2.7
		c-2.3-2.4-3.9-5.4-4.7-8.6c-0.6-2.2-0.9-4.4-1-6.7c-0.1-1.5-0.1-2.9,0.1-4.4c0.3-2.7,1-5.3,2.4-7.6c0.9-1.7,2.2-3.2,3.8-4.3
		c1-0.8,2.2-1.5,3.4-1.9c1.7-0.6,3.6-0.8,5.4-0.6c0.7,0.1,1.4,0.3,2,0.5c0.1,0,0.1,0,0.1,0.1c0,0,0.1,0,0.1,0.1
		c0.1,0,0.2,0.1,0.3,0.2c0.5,0.3,1,0.6,1.5,0.9c1.9,1.3,3.4,3.2,4.4,5.3c0.9,1.9,1.3,4.1,1.3,6.2c0,2.3-0.4,4.6-1.4,6.6
		c-1.2,2.5-3.2,4.6-5.6,6c0.2,0.1,0.4,0.1,0.6,0.2c0.5,0.1,0.9,0.2,1.5,0.2c3.1,0.1,6.1-1.4,8.3-3.5c0.4-0.4,0.8-0.8,1.1-1.2
		c0.5-0.6,0.9-1.1,1.3-1.7c0.5-0.8,0.9-1.6,1.3-2.4c0.5-1.1,0.9-2.3,1.1-3.5c0.4-2.1,0.4-4.3,0.3-6.4c-0.3-4.3-1.4-8.5-3.9-12.1
		c-0.4-0.5-0.8-1-1.2-1.5c-0.7-0.8-1.5-1.5-2.2-2.2c-0.9-0.7-1.9-1.4-2.9-1.9c-1-0.5-2.3-0.9-3.6-1.3l-0.6-0.1
		c-0.4-0.1-0.9-0.1-1.3-0.1c-0.7,0-1.4,0-2.1,0c-1.5,0.1-3,0.3-4.5,0.7c-7.1,1.8-13.3,6.8-16.6,13.3c-1.1,2.1-1.8,4.3-2.2,6.6
		c-0.5,2.6-0.6,5.3-0.2,8c0.3,2.2,0.8,4.3,1.6,6.3c0.5,1.2,1.1,2.4,1.7,3.5c2.3,3.8,5.7,6.8,9.5,9c1.5,0.8,3,1.5,4.6,2
		C332.4,22.4,332.9,22.6,333.4,22.7L333.4,22.7z"/>
</g>
</svg>
